# xmcd CD database file
#
# Track frame offsets:
#	150
#	32984
#	57000
#	84054
#	99885
#	112742
#	134945
#	150477
#	168921
#	183748
#	198708
#
# Disc length: 2881 seconds
#
# Revision: 0
# Processed by: cddbd v1.5.2PL0 Copyright (c) Steve Scherf et al.
# Submitted via: CDex 1.51
#
DISCID=890b3f0b
DTITLE=Amazonas - Above your head
DYEAR=2011
DGENRE=Jazz
TTITLE0=Restlessness
TTITLE1=Climb with me
TTITLE2=Still i hope
TTITLE3=Return to our favorite story
TTITLE4=No ordinary lovesong
TTITLE5=Outside my house
TTITLE6=I´m heading for the sea
TTITLE7=Sun in my mind
TTITLE8=Nice and quiet
TTITLE9=Above your head
TTITLE10=Now the night fall
EXTD=YEAR: 2011
EXTT0=
EXTT1=
EXTT2=
EXTT3=
EXTT4=
EXTT5=
EXTT6=
EXTT7=
EXTT8=
EXTT9=
EXTT10=
PLAYORDER=
